<?xml version="1.0" encoding="UTF-8" standalone="no"?>
<!DOCTYPE svg PUBLIC "-//W3C//DTD SVG 1.1//EN"
 "http://www.w3.org/Graphics/SVG/1.1/DTD/svg11.dtd">
<!-- Generated by graphviz version 5.0.0 (20220707.1540)
 -->
<!-- Title: dependencies Pages: 1 -->
<svg width="426pt" height="250pt"
 viewBox="0.00 0.00 426.00 249.80" xmlns="http://www.w3.org/2000/svg" xmlns:xlink="http://www.w3.org/1999/xlink">
<g id="graph0" class="graph" transform="scale(1 1) rotate(0) translate(4 245.8)">
<title>dependencies</title>
<polygon fill="white" stroke="transparent" points="-4,4 -4,-245.8 422,-245.8 422,4 -4,4"/>
<text text-anchor="middle" x="209" y="-8.2" font-family="sans-serif" font-size="14.00">dependencies</text>
<g id="clust1" class="cluster">
<title>cluster_AppModule</title>
<polygon fill="none" stroke="black" stroke-dasharray="1,5" points="8,-108.8 8,-233.8 410,-233.8 410,-108.8 8,-108.8"/>
</g>
<g id="clust3" class="cluster">
<title>cluster_AppModule_imports</title>
<polygon fill="none" stroke="black" points="154,-116.8 154,-168.8 402,-168.8 402,-116.8 154,-116.8"/>
</g>
<g id="clust6" class="cluster">
<title>cluster_AppModule_providers</title>
<polygon fill="none" stroke="black" points="16,-116.8 16,-168.8 146,-168.8 146,-116.8 16,-116.8"/>
</g>
<g id="clust13" class="cluster">
<title>cluster_ProductModule</title>
<polygon fill="none" stroke="black" stroke-dasharray="1,5" points="128,-32.8 128,-100.8 300,-100.8 300,-32.8 128,-32.8"/>
</g>
<g id="clust18" class="cluster">
<title>cluster_ProductModule_providers</title>
<polygon fill="none" stroke="black" points="136,-40.8 136,-92.8 292,-92.8 292,-40.8 136,-40.8"/>
</g>
<!-- CategoryModule -->
<g id="node1" class="node">
<title>CategoryModule</title>
<polygon fill="#8dd3c7" stroke="black" points="394.37,-160.8 391.37,-164.8 370.37,-164.8 367.37,-160.8 283.63,-160.8 283.63,-124.8 394.37,-124.8 394.37,-160.8"/>
<text text-anchor="middle" x="339" y="-138.6" font-family="Times,serif" font-size="14.00">CategoryModule</text>
</g>
<!-- AppModule -->
<g id="node3" class="node">
<title>AppModule</title>
<polygon fill="#8dd3c7" stroke="black" points="255.66,-225.8 252.66,-229.8 231.66,-229.8 228.66,-225.8 172.34,-225.8 172.34,-189.8 255.66,-189.8 255.66,-225.8"/>
<text text-anchor="middle" x="214" y="-203.6" font-family="Times,serif" font-size="14.00">AppModule</text>
</g>
<!-- CategoryModule&#45;&gt;AppModule -->
<g id="edge1" class="edge">
<title>CategoryModule&#45;&gt;AppModule</title>
<path fill="none" stroke="black" d="M339,-160.91C339,-180.14 339,-207.8 339,-207.8 339,-207.8 265.97,-207.8 265.97,-207.8"/>
<polygon fill="black" stroke="black" points="265.97,-204.3 255.97,-207.8 265.97,-211.3 265.97,-204.3"/>
</g>
<!-- ProductModule -->
<g id="node2" class="node">
<title>ProductModule</title>
<polygon fill="#8dd3c7" stroke="black" points="265.6,-160.8 262.6,-164.8 241.6,-164.8 238.6,-160.8 162.4,-160.8 162.4,-124.8 265.6,-124.8 265.6,-160.8"/>
<text text-anchor="middle" x="214" y="-138.6" font-family="Times,serif" font-size="14.00">ProductModule</text>
</g>
<!-- ProductModule&#45;&gt;AppModule -->
<g id="edge2" class="edge">
<title>ProductModule&#45;&gt;AppModule</title>
<path fill="none" stroke="black" d="M214,-160.91C214,-160.91 214,-179.79 214,-179.79"/>
<polygon fill="black" stroke="black" points="210.5,-179.79 214,-189.79 217.5,-179.79 210.5,-179.79"/>
</g>
<!-- AppService -->
<g id="node4" class="node">
<title>AppService</title>
<ellipse fill="#fdb462" stroke="black" cx="81" cy="-142.8" rx="56.75" ry="18"/>
<text text-anchor="middle" x="81" y="-138.6" font-family="Times,serif" font-size="14.00">AppService</text>
</g>
<!-- AppService&#45;&gt;AppModule -->
<g id="edge3" class="edge">
<title>AppService&#45;&gt;AppModule</title>
<path fill="none" stroke="black" d="M81,-160.91C81,-180.14 81,-207.8 81,-207.8 81,-207.8 162.28,-207.8 162.28,-207.8"/>
<polygon fill="black" stroke="black" points="162.28,-211.3 172.28,-207.8 162.28,-204.3 162.28,-211.3"/>
</g>
<!-- ProductService -->
<g id="node5" class="node">
<title>ProductService</title>
<ellipse fill="#fdb462" stroke="black" cx="214" cy="-66.8" rx="70.07" ry="18"/>
<text text-anchor="middle" x="214" y="-62.6" font-family="Times,serif" font-size="14.00">ProductService</text>
</g>
<!-- ProductService&#45;&gt;ProductModule -->
<g id="edge4" class="edge">
<title>ProductService&#45;&gt;ProductModule</title>
<path fill="none" stroke="black" d="M214,-84.81C214,-84.81 214,-114.65 214,-114.65"/>
<polygon fill="black" stroke="black" points="210.5,-114.65 214,-124.65 217.5,-114.65 210.5,-114.65"/>
</g>
</g>
</svg>
